<svg width="26" height="26" xmlns="http://www.w3.org/2000/svg">
 <g>
  <title>background</title>
  <rect x="-1" y="-1" width="3.076405" height="3.076405" id="canvas_background" fill="none"/>
 </g>

 <g>
  <title>Layer 1</title>
  <path d="m25.00429,10.19981c-0.08789,-0.27148 -0.32226,-0.46973 -0.60547,-0.51074l-7.38281,-1.07324l-3.30176,-6.69434c-0.2539,-0.51172 -1.0918,-0.51172 -1.3457,0l-3.30176,6.69434l-7.38281,1.07324c-0.2832,0.04101 -0.51758,0.23926 -0.60547,0.51074c-0.08887,0.27149 -0.01465,0.56934 0.18945,0.76856l5.34278,5.21093l-1.26172,7.35743c-0.04785,0.28125 0.06738,0.5664 0.29883,0.73339c0.22949,0.16895 0.53515,0.18946 0.79003,0.05762l6.60352,-3.47363l6.60352,3.47363c0.11035,0.05762 0.23046,0.08594 0.34961,0.08594c0.00683,0.00097 0.01464,0.00097 0.01953,0c0.41504,0 0.75,-0.33594 0.75,-0.75c0,-0.10352 -0.02051,-0.20313 -0.0586,-0.29297l-1.2334,-7.19141l5.34278,-5.21093c0.2041,-0.19922 0.27832,-0.49707 0.18945,-0.76856zm-6.86133,5.18067c-0.17676,0.17285 -0.25781,0.42089 -0.21582,0.66406l1.07129,6.24804l-5.60742,-2.95019c-0.10938,-0.05762 -0.22949,-0.08594 -0.34961,-0.08594s-0.24023,0.02832 -0.34961,0.08594l-5.60742,2.95019l1.07129,-6.24804c0.04199,-0.24317 -0.03906,-0.49121 -0.21582,-0.66406l-4.53711,-4.42579l6.26953,-0.91113c0.24512,-0.03516 0.45605,-0.18945 0.56543,-0.41016l2.80371,-5.68457l2.80371,5.68457c0.10938,0.22071 0.32031,0.375 0.56543,0.41016l6.26953,0.91113l-4.53711,4.42579z" fill="#ffffff" id="svg_1"/>
  <path fill="#ffffff" stroke-width="0" d="m13.228835,3.329331c0,0 -0.082804,16.291786 -0.103846,16.273218c0.021041,0.018569 -6.354933,3.060253 -6.354933,2.976919c0,-0.083334 1.076458,-7.000047 1.055427,-7.018616c0.021031,0.018569 -4.740245,-4.89814 -4.761287,-4.916709c0.021041,0.018569 6.976646,-1.148101 6.955615,-1.166669c0.021031,0.018569 2.629392,-6.606487 3.209023,-6.148143l0.000001,0z" id="svg_2" transform="rotate(-1.0784940719604492 8.146514892578463,12.943873405456506) " stroke="#1d1d1b"/>
 </g>
</svg>