<svg width="48.00000000000001" height="48.00000000000001" xmlns="http://www.w3.org/2000/svg">
 <g>
  <title>background</title>
  <rect x="-1" y="-1" width="50" height="50" id="canvas_background" fill="none"/>
 </g>

 <g>
  <title>Layer 1</title>
  <ellipse fill="#ffffff" stroke="null" stroke-width="null" stroke-opacity="null" cx="23.965296" cy="23.960958" id="svg_4" rx="20.406197" ry="21.100285"/>
  <path stroke="#000000" stroke-opacity="0" d="m24,0c-13.255,0 -24,10.746 -24,24c0,13.255 10.745,24 24,24s24,-10.744 24,-24c0,-13.254 -10.745,-24 -24,-24zm0.029,43.844c-11.023,0 -19.959,-8.936 -19.959,-19.958s8.936,-19.96 19.959,-19.96c11.022,0 19.959,8.936 19.959,19.959s-8.936,19.959 -19.959,19.959z" fill="#ffffff" id="svg_2"/>
  <path d="m32.62941,21.902l-6.458,0l0.008,-6.576c-0.026,-0.454 -0.221,-1.354 -1.331,-1.356l-1.579,-0.002c-1.181,-0.001 -1.282,1.165 -1.288,1.47l-0.008,6.463l-6.607,0c-1.22,0 -1.323,0.941 -1.328,1.21l0,1.809c0.006,0.247 0.107,1.178 1.328,1.178l6.602,0l-0.008,6.602c-0.002,1.219 0.939,1.324 1.209,1.33l1.809,0.002c0.247,-0.006 1.178,-0.107 1.18,-1.326l0.008,-6.607l6.581,0c0.454,-0.027 1.354,-0.223 1.354,-1.333l0,-1.578c-0.001,-1.181 -1.167,-1.28 -1.472,-1.286z" fill="#231f20" id="svg_3"/>
 </g>
</svg>