<svg width="1792" height="1792" xmlns="http://www.w3.org/2000/svg">

 <g>
  <title>background</title>
  <rect fill="none" id="canvas_background" height="402" width="582" y="-1" x="-1"/>
 </g>
 <g>
  <title>Layer 1</title>
  <path fill="#ffffff" id="svg_1" d="m1376,128q119,0 203.5,84.5t84.5,203.5l0,960q0,119 -84.5,203.5t-203.5,84.5l-188,0l0,-595l199,0l30,-232l-229,0l0,-148q0,-56 23.5,-84t91.5,-28l122,-1l0,-207q-63,-9 -178,-9q-136,0 -217.5,80t-81.5,226l0,171l-200,0l0,232l200,0l0,595l-532,0q-119,0 -203.5,-84.5t-84.5,-203.5l0,-960q0,-119 84.5,-203.5t203.5,-84.5l960,0z"/>
 </g>
</svg>