<?xml version="1.0" encoding="UTF-8" standalone="no"?>
<svg
   xmlns:dc="http://purl.org/dc/elements/1.1/"
   xmlns:cc="http://creativecommons.org/ns#"
   xmlns:rdf="http://www.w3.org/1999/02/22-rdf-syntax-ns#"
   xmlns:svg="http://www.w3.org/2000/svg"
   xmlns="http://www.w3.org/2000/svg"
   xmlns:sodipodi="http://sodipodi.sourceforge.net/DTD/sodipodi-0.dtd"
   xmlns:inkscape="http://www.inkscape.org/namespaces/inkscape"
   inkscape:version="1.0 (4035a4fb49, 2020-05-01)"
   sodipodi:docname="wondershare-filmora-video-editor-seeklogo.com.svg"
   version="1.1"
   id="svg2"
   xml:space="preserve"
   width="133.33333"
   height="133.33333"
   viewBox="0 0 133.33333 133.33333"><sodipodi:namedview
     inkscape:current-layer="layer3"
     inkscape:window-maximized="1"
     inkscape:window-y="-8"
     inkscape:window-x="-8"
     inkscape:cy="76.029844"
     inkscape:cx="41.444938"
     inkscape:zoom="3.8979263"
     showgrid="false"
     id="namedview182"
     inkscape:window-height="987"
     inkscape:window-width="1680"
     inkscape:pageshadow="2"
     inkscape:pageopacity="0"
     guidetolerance="10"
     gridtolerance="10"
     objecttolerance="10"
     borderopacity="1"
     bordercolor="#666666"
     pagecolor="#ffffff" /><metadata
     id="metadata8"><rdf:RDF><cc:Work
         rdf:about=""><dc:format>image/svg+xml</dc:format><dc:type
           rdf:resource="http://purl.org/dc/dcmitype/StillImage" /><dc:title></dc:title></cc:Work></rdf:RDF></metadata><defs
     id="defs6"><clipPath
       clipPathUnits="userSpaceOnUse"
       id="clipPath20"><path
         d="M 960,0 H 40 C 17.9102,0 0,17.9102 0,40 v 920 c 0,22.09 17.9102,40 40,40 h 920 c 22.09,0 40,-17.91 40,-40 V 40 C 1000,17.9102 982.09,0 960,0"
         id="path18" /></clipPath><clipPath
       clipPathUnits="userSpaceOnUse"
       id="clipPath30"><path
         d="M 960,0 H 40 C 17.9102,0 0,17.9102 0,40 v 920 c 0,22.09 17.9102,40 40,40 h 920 c 22.09,0 40,-17.91 40,-40 V 40 C 1000,17.9102 982.09,0 960,0"
         id="path28" /></clipPath><clipPath
       clipPathUnits="userSpaceOnUse"
       id="clipPath36"><path
         d="M 960,0 H 40 C 17.9102,0 0,17.9102 0,40 v 920 c 0,22.09 17.9102,40 40,40 h 920 c 22.09,0 40,-17.91 40,-40 V 40 C 1000,17.9102 982.09,0 960,0"
         id="path34" /></clipPath><clipPath
       clipPathUnits="userSpaceOnUse"
       id="clipPath48"><path
         d="M 960,0 H 40 C 17.9102,0 0,17.9102 0,40 v 920 c 0,22.09 17.9102,40 40,40 h 920 c 22.09,0 40,-17.91 40,-40 V 40 C 1000,17.9102 982.09,0 960,0"
         id="path46" /></clipPath><clipPath
       id="clipPath20-0"
       clipPathUnits="userSpaceOnUse"><path
         id="path18-4"
         d="M 960,0 H 40 C 17.9102,0 0,17.9102 0,40 v 920 c 0,22.09 17.9102,40 40,40 h 920 c 22.09,0 40,-17.91 40,-40 V 40 C 1000,17.9102 982.09,0 960,0" /></clipPath><clipPath
       id="clipPath30-5"
       clipPathUnits="userSpaceOnUse"><path
         id="path28-7"
         d="M 960,0 H 40 C 17.9102,0 0,17.9102 0,40 v 920 c 0,22.09 17.9102,40 40,40 h 920 c 22.09,0 40,-17.91 40,-40 V 40 C 1000,17.9102 982.09,0 960,0" /></clipPath><clipPath
       id="clipPath36-5"
       clipPathUnits="userSpaceOnUse"><path
         id="path34-0"
         d="M 960,0 H 40 C 17.9102,0 0,17.9102 0,40 v 920 c 0,22.09 17.9102,40 40,40 h 920 c 22.09,0 40,-17.91 40,-40 V 40 C 1000,17.9102 982.09,0 960,0" /></clipPath></defs><g
     inkscape:label="Layer 1"
     id="layer3"
     inkscape:groupmode="layer"><g
       transform="matrix(0.10485665,0,0,-0.10485665,16.788549,118.10271)"
       id="g14"><g
         clip-path="url(#clipPath20-0)"
         id="g16" /></g><path
       d="M 15.443359 7.7050781 C 13.127086 7.7050781 11.248047 9.5841064 11.248047 11.900391 L 11.248047 24.904297 L 4.8671875 65.673828 L 11.248047 72.054688 L 11.248047 119.44727 C 11.248047 121.76354 13.127086 123.64258 15.443359 123.64258 L 62.833984 123.64258 L 69.216797 130.02539 L 113.41992 123.64258 L 122.99023 123.64258 C 125.30651 123.64258 127.18555 121.76354 127.18555 119.44727 L 127.18555 11.900391 C 127.18555 9.5841064 125.30651 7.7050781 122.99023 7.7050781 L 15.443359 7.7050781 z M 60.730469 29.109375 L 77.644531 46.023438 L 57.253906 66.412109 C 59.173307 64.493127 59.173307 61.380339 57.253906 59.460938 L 43.816406 46.023438 L 60.730469 29.109375 z M 79.908203 47.601562 L 97.865234 65.558594 L 61.947266 101.47852 L 43.990234 83.519531 L 79.908203 47.601562 z "
       style="fill:#ffffff;fill-opacity:1;fill-rule:nonzero;stroke:none;stroke-width:0.104857"
       id="path50" /></g></svg>
