<svg width="707.96002" height="666.65332" xmlns="http://www.w3.org/2000/svg">
 <metadata id="metadata8">image/svg+xml</metadata>

 <g>
  <title>background</title>
  <rect fill="none" id="canvas_background" height="402" width="582" y="-1" x="-1"/>
 </g>
 <g>
  <title>Layer 1</title>
  <g stroke="null" id="svg_1">
   <path fill="#ffffff" fill-rule="evenodd" d="m358.807028,38.873971c-166.457543,0 -301.437554,134.955053 -301.437554,301.437554c0,133.183006 86.371034,246.174668 206.141397,286.033231c15.064889,2.790349 20.59567,-6.5391 20.59567,-14.50083c0,-7.188019 -0.279534,-30.933439 -0.409318,-56.121455c-83.860219,18.234606 -101.555724,-35.565718 -101.555724,-35.565718c-13.712144,-34.841924 -33.469212,-44.106482 -33.469212,-44.106482c-27.349413,-18.708816 2.061564,-18.324456 2.061564,-18.324456c30.269546,2.121464 46.207979,31.068214 46.207979,31.068214c26.885187,46.078195 70.517459,32.755402 87.718787,25.05324c2.70549,-19.482526 10.517469,-32.785352 19.1381,-40.307814c-66.9534,-7.622295 -137.336084,-33.469212 -137.336084,-148.971689c0,-32.910144 11.775372,-59.800323 31.058231,-80.910136c-3.129783,-7.597337 -13.447585,-38.251242 2.920133,-79.772033c0,0 25.312808,-8.101496 82.916792,30.898497c24.044921,-6.678867 49.831939,-10.028285 75.449239,-10.143093c25.6173,0.114809 51.424284,3.464226 75.514131,10.143093c57.5341,-38.999994 82.811966,-30.898497 82.811966,-30.898497c16.407651,41.520792 6.084858,72.174697 2.955074,79.772033c19.327784,21.109813 31.023289,47.999992 31.023289,80.910136c0,115.777019 -70.517459,141.269527 -137.640576,148.732089c10.811978,9.354408 20.44592,27.698831 20.44592,55.821954c0,40.332772 -0.349418,72.793665 -0.349418,82.722116c0,8.021629 5.425956,17.420962 20.705487,14.460896c119.705471,-39.903488 205.966688,-152.855216 205.966688,-285.993297c0,-166.482502 -134.960044,-301.437554 -301.432562,-301.437554" id="path18"/>
   <path fill="#ffffff" fill-rule="nonzero" d="m171.539172,471.672568c-0.663893,1.502496 -3.019966,1.946755 -5.166388,0.918469c-2.186356,-0.983361 -3.414309,-3.024958 -2.70549,-4.527453c0.648918,-1.537437 3.009983,-1.966722 5.191347,-0.943427c2.191347,0.988353 3.439267,3.049916 2.680532,4.552412l0,0" id="path20"/>
   <path fill="#ffffff" fill-rule="nonzero" d="m183.748821,485.28987c-1.437604,1.332778 -4.247919,0.71381 -6.154741,-1.392679c-1.971713,-2.101497 -2.341098,-4.911813 -0.883527,-6.264558c1.482529,-1.327787 4.207986,-0.703827 6.184691,1.392679c1.971713,2.126456 2.356073,4.916805 0.853577,6.264558l0,0" id="path22"/>
   <path fill="#ffffff" fill-rule="nonzero" d="m195.63401,502.650932c-1.846921,1.282862 -4.866888,0.079867 -6.733776,-2.600665c-1.846921,-2.680532 -1.846921,-5.895174 0.039933,-7.183027c1.87188,-1.287853 4.846921,-0.124792 6.738768,2.530782c1.84193,2.725457 1.84193,5.940099 -0.044925,7.252911l0,0" id="path24"/>
   <path fill="#ffffff" fill-rule="nonzero" d="m211.91687,519.422976c-1.652246,1.821963 -5.17138,1.332778 -7.747087,-1.153078c-2.635607,-2.430948 -3.369384,-5.880199 -1.712146,-7.702162c1.672213,-1.826955 5.211314,-1.312812 7.806987,1.153078c2.61564,2.425956 3.414309,5.900165 1.652246,7.702162l0,0" id="path26"/>
   <path fill="#ffffff" fill-rule="nonzero" d="m234.379428,529.161743c-0.728785,2.361065 -4.118136,3.434276 -7.532445,2.430948c-3.409317,-1.033278 -5.640598,-3.798668 -4.951746,-6.184691c0.708819,-2.37604 4.113144,-3.494176 7.552411,-2.420965c3.404326,1.028286 5.640598,3.77371 4.93178,6.174708l0,0" id="path28"/>
   <path fill="#ffffff" fill-rule="nonzero" d="m259.048309,530.968731c0.084859,2.485856 -2.810316,4.54742 -6.394342,4.592345c-3.603993,0.079867 -6.519134,-1.93178 -6.559067,-4.377703c0,-2.510815 2.830282,-4.552412 6.434275,-4.612312c3.584026,-0.069884 6.519134,1.926788 6.519134,4.39767l0,0" id="path30"/>
   <path fill="#ffffff" fill-rule="nonzero" d="m282.005044,527.060246c0.429284,2.425956 -2.061564,4.916805 -5.620631,5.580698c-3.499167,0.638935 -6.738768,-0.858569 -7.183027,-3.264559c-0.434276,-2.485856 2.101497,-4.976705 5.595673,-5.620631c3.564059,-0.618968 6.753743,0.838602 7.207985,3.304492l0,0" id="path32"/>
  </g>
 </g>
</svg>