<svg width="50" height="50" xmlns="http://www.w3.org/2000/svg">
 <g>
  <title>background</title>
  <rect x="-1" y="-1" width="5.607507" height="5.607507" id="canvas_background" fill="none"/>
 </g>

 <g>
  <title>Layer 1</title>
  <path id="svg_3" d="m10.847782,11.898285c-2.920119,-0.069938 -8.560521,-3.037568 5.432424,8.305856c13.992945,11.461697 7.485755,24.516182 7.644986,24.436567c0.15923,-0.079615 3.593973,-3.90456 2.666363,-14.525596c-0.373395,-6.883394 -10.141014,-13.895036 -9.235391,-15.763856c1.992069,-2.329877 11.186723,-2.034415 11.146161,-2.070001c0.040562,0.035586 6.412759,-0.229977 12.818085,5.175003c-4.276409,-4.754477 -12.707328,-7.509701 -15.763856,-7.722697c-11.136253,-0.496643 -14.130986,1.866741 -14.210601,1.866741c-0.079616,0 -2.863856,-3.337169 -2.149617,-4.697311c0.714239,-1.360142 9.449821,-4.938458 15.52501,-4.936157c6.075189,0.002301 9.407573,-0.605039 16.48539,5.048523c7.077817,5.653562 7.299717,11.020122 5.447908,16.969367c-1.851809,5.949245 -2.525181,9.714516 -7.866049,16.255127c-5.340867,6.540612 -12.749793,10.043595 -15.311241,8.89645c-2.561449,-1.147145 -12.962276,-5.104603 -18.857755,-21.016946c-5.895479,-15.912343 2.183895,-19.913058 3.917431,-20.71742" stroke-opacity="null" stroke-width="null" stroke="null" fill="#ffffff"/>
  <path stroke="null" id="svg_4" d="m12.020033,14.38956c1.155948,2.205282 2.478417,3.909013 5.642438,7.018913l-11.846945,-7.590651c0.82137,-2.174884 0.852538,-3.559566 1.673908,-5.73445c0.55797,-0.578453 2.143201,-1.472987 3.214802,-2.20948l1.005323,5.38143c-0.251329,0.256258 -0.403754,0.493147 -0.753985,0.709638z" stroke-opacity="null" stroke-width="null" fill="#ffffff"/>
  <path transform="rotate(3.0641777515411377 9.272144317626895,8.42191028594969) " id="svg_5" d="m10.400859,5.814245c-0.632161,0.276571 -4.788716,3.335969 -4.179333,3.777675c0.300837,0.300901 0.702446,1.437655 0.692569,1.437655c0.009877,0 5.699328,-3.555906 5.462268,-3.713947l-1.975504,-1.501383z" stroke-opacity="null" stroke-width="null" stroke="null" fill="#ffffff"/>
 </g>
</svg>