<svg width="744" height="744" xmlns="http://www.w3.org/2000/svg">
 <metadata id="metadata47">image/svg+xml</metadata>

 <g>
  <title>background</title>
  <rect fill="none" id="canvas_background" height="3.07643" width="3.07643" y="-1" x="-1"/>
 </g>
 <g>
  <title>Layer 1</title>
  <path fill="#ffffff" fill-rule="evenodd" stroke-width="3.779528" stroke-linecap="round" stroke-miterlimit="4" stroke-dashoffset="65.004089" id="path949" d="m632.34766,100.328125l-2.06055,0.390625c1.12294,0.61818 2.24044,1.262803 3.35156,1.949219l-1.29101,-2.339844zm-74.49219,14.146484l-12.39844,26.228511c4.48418,-9.01065 8.67235,-17.81407 12.39844,-26.228511zm-12.39844,26.228511l-97.07422,168.33594c18.67749,-31.13173 65.61309,-105.11694 97.07422,-168.33594zm106.13281,-5.42187c-19.37536,29.34504 -134.52037,240.19384 -164.9414,314.80273c30.49706,-23.97635 43.93794,-43.48882 74.13281,-49.43554c-5.21641,-74.96907 52.40522,-165.49806 99.24414,-250.14844l-8.43555,-15.21875zm-192.14062,195.9668c-0.21807,-0.00953 -0.44474,-0.00252 -0.67969,0.02148c-4.66973,0.47748 -11.893,7.45389 -17.66015,17.05664c-6.22957,10.38027 -9.03587,20.93915 -6.6543,25.03711l-101.64844,265.09375l103.94727,-263.45117c4.48533,0.74928 12.46701,-6.47369 18.80078,-17.01367c7.09027,-11.80535 9.60431,-23.53957 5.61523,-26.20899c-0.48982,-0.32765 -1.0665,-0.50657 -1.7207,-0.53515z"/>
  <path fill="#ffffff" fill-rule="evenodd" stroke-width="3.779528" stroke-linecap="round" stroke-miterlimit="4" stroke-dashoffset="65.004089" id="path944" d="m354.05273,72.082031c-11.0583,0 -21.97861,0.598484 -32.73632,1.753907c43.07131,72.199632 26.53989,174.150912 -26.59375,284.873042c-66.9366,137.90775 19.30273,274.4004 19.30273,274.4004c1.20832,3.70818 -240.208171,-164.1659 -254.841796,-340.91797c-9.500532,30.42629 -14.646485,62.84774 -14.646485,96.50976c0,83.97523 32.607284,164.50532 90.654301,223.88477c58.04701,59.37946 136.77046,92.73633 218.86132,92.73633c82.09086,0 160.81238,-33.35687 218.85938,-92.73633c58.047,-59.37945 90.6543,-139.90954 90.6543,-223.88477c0,-47.55557 -10.4657,-94.00117 -30.07813,-136.13086c0.56948,-1.10882 1.13838,-2.21207 1.70899,-3.29101l-1.9375,-2.34375c-22.04557,41.30356 -43.64151,104.43343 -43.85938,197.11718c-140.58843,23.1554 -255.60087,193.68242 -253.31055,195.82227l-7.83398,-0.38867c24.18788,-83.5984 84.65905,-278.88943 113.21484,-318.45899c9.04735,-17.44682 67.15276,-106.30968 103.98633,-180.32422l-1.96484,-2.37695c-53.9388,-42.708836 -120.49782,-66.244139 -189.43946,-66.244139z"/>
  <path clip-rule="nonzero" fill="#ffffff" fill-rule="evenodd" stroke-width="13.262753" stroke-miterlimit="4" stroke-dashoffset="0" id="path888" d="m354.05273,58.669922c-178.10463,0 -322.628902,147.838268 -322.628902,330.031248c0,87.52771 33.993473,171.47769 94.496092,233.36914c60.50262,61.89144 142.56917,96.66404 228.13281,96.66407c85.56363,0 167.62824,-34.77263 228.13086,-96.66407c60.50263,-61.89145 94.4961,-145.84143 94.4961,-233.36914c0,-52.75819 -12.36778,-104.20719 -35.42969,-150.31836c-2.01174,3.45042 -4.0344,7.08004 -6.05273,10.89649c-0.32234,0.60949 -0.64319,1.23774 -0.96485,1.85937a311.09979,318.00006 0 0 1 30.91992,137.56445a311.09979,318.00006 0 0 1 -311.10156,318a311.09979,318.00006 0 0 1 -311.099608,-318a311.09979,318.00006 0 0 1 311.099608,-318.001948a311.09979,318.00006 0 0 1 189.92774,66.630858c1.8743,-3.79355 3.69664,-7.54621 5.44336,-11.24219c-55.84871,-43.478113 -124.39866,-67.419918 -195.36915,-67.419918z"/>
  <path fill="#ffffff" fill-rule="evenodd" stroke="#ffffff" stroke-width="0.6994464pt" id="path686" d="m577.00977,64.253906c-15.23959,-0.71824 -27.85588,2.989991 -36.19532,10.638672c-21.07934,22.759856 -2.144,59.023962 4.64258,65.810542l20.92578,-36.244136c15.36971,-26.621123 100.4887,23.013256 93.64258,46.041016l-17.21289,57.72461c19.02109,2.79915 34.95176,-0.66106 44.88867,-9.75c22.85574,-20.96255 8.5017,-65.62141 -32.06055,-99.748048c-24.24405,-20.396943 -53.66733,-33.296444 -78.63085,-34.472656z"/>
 </g>
</svg>