<?xml version="1.0" encoding="UTF-8" standalone="no"?>
<svg
   xmlns:dc="http://purl.org/dc/elements/1.1/"
   xmlns:cc="http://creativecommons.org/ns#"
   xmlns:rdf="http://www.w3.org/1999/02/22-rdf-syntax-ns#"
   xmlns:svg="http://www.w3.org/2000/svg"
   xmlns="http://www.w3.org/2000/svg"
   viewBox="0 0 258.66666 258.66666"
   height="258.66666"
   width="258.66666"
   xml:space="preserve"
   id="svg2"
   version="1.1"><metadata
     id="metadata8"><rdf:RDF><cc:Work
         rdf:about=""><dc:format>image/svg+xml</dc:format><dc:type
           rdf:resource="http://purl.org/dc/dcmitype/StillImage" /></cc:Work></rdf:RDF></metadata><defs
     id="defs6" /><g
     transform="matrix(1.3333333,0,0,-1.3333333,0,258.66667)"
     id="g10"><g
       transform="scale(0.1)"
       id="g12"><path
         id="path16"
         style="fill:#2873aa;fill-opacity:1;fill-rule:evenodd;stroke:none"
         d="m 893.914,839.23 h 47.672 c 0.23,0 0.23,0 0.23,0.231 v 199.899 c 0,0.23 0,0.23 -0.23,0.23 h -47.672 c -0.226,0 -0.226,0 -0.226,-0.23 V 839.461 c 0,-0.231 0,-0.231 0.226,-0.231" /><path
         id="path18"
         style="fill:#2873aa;fill-opacity:1;fill-rule:evenodd;stroke:none"
         d="m 1269.77,1001.59 c -29.94,0 -46.52,-8.75 -67.72,-26.254 0,0 -0.23,0.234 -0.23,0 0,1.613 0.7,12.207 -1.37,12.207 -13.13,0 -32.71,0.461 -46.75,0 V 839.926 c 18.19,-0.235 48.12,0 48.12,0 0.23,28.554 0.23,60.797 0.23,91.195 1.85,12.899 14.75,32.242 47.91,32.242 23.49,1.844 29.02,-16.582 29.02,-37.308 0,-23.028 0,-56.196 0,-86.129 h 47.9 c 0,12.894 5.07,90.734 -1.84,120.211 -8.29,36.847 -44.68,40.993 -55.27,41.453" /><path
         id="path20"
         style="fill:#2873aa;fill-opacity:1;fill-rule:evenodd;stroke:none"
         d="m 689.406,1052.95 49.285,-13.36 v -55.27 c 15.2,9.672 33.625,15.43 53.661,15.43 49.976,0 90.738,-36.387 90.738,-80.836 0,-44.445 -40.762,-80.832 -90.738,-80.832 -20.036,0 -38.461,5.523 -53.661,15.199 v -13.59 h -49.285 z m 95.578,-90.509 c 25.789,0 46.52,-19.804 46.52,-44.679 0,-24.41 -20.731,-44.676 -46.52,-44.676 -25.336,0 -46.062,20.266 -46.062,44.676 0,24.875 20.726,44.679 46.062,44.679" /><path
         id="path22"
         style="fill:#2873aa;fill-opacity:1;fill-rule:evenodd;stroke:none"
         d="m 1531.62,1052.95 -49.75,-13.36 -0.23,-55.5 c -14.97,9.672 -33.39,15.66 -53.43,15.66 -49.97,0 -90.74,-36.387 -90.74,-80.836 0,-44.445 40.77,-80.832 90.74,-80.832 19.58,0 38,5.523 52.97,14.965 l -0.23,-13.356 h 50.67 z m -96.04,-90.509 c -25.33,0 -46.06,-19.804 -46.06,-44.679 0,-24.41 20.73,-44.676 46.06,-44.676 25.8,0 46.52,20.266 46.52,44.676 0,24.875 -20.72,44.679 -46.52,44.679" /><path
         id="path24"
         style="fill:#2873aa;fill-opacity:1;fill-rule:evenodd;stroke:none"
         d="m 1727.83,908.781 c -0.46,57.114 -22.8,96.499 -98.11,93.729 -59.41,-1.38 -89.81,-32.01 -88.66,-87.971 4.83,-54.809 35.23,-70.934 85.67,-78.301 43.53,-1.613 74.16,13.36 84.52,34.086 -11.28,8.059 -25.33,15.199 -36.39,23.028 -12.2,-17.043 -23.02,-26.024 -41.45,-23.258 -32.24,4.836 -37.54,20.265 -38.69,38.457 43.07,0 90.28,0.23 133.11,0.23 z m -131.04,31.551 c 2.76,16.582 11.98,30.398 38.23,32.242 23.49,0 38.23,-14.277 38.23,-32.242 0,0 -78.3,0 -76.46,0" /><path
         id="path26"
         style="fill:#2873aa;fill-opacity:1;fill-rule:evenodd;stroke:none"
         d="m 1140.57,908.781 c -0.46,57.114 -22.8,96.499 -98.11,93.729 -59.417,-1.38 -89.819,-32.01 -88.667,-87.971 4.836,-54.809 35.234,-70.934 85.667,-78.301 43.53,-1.613 74.16,13.36 84.52,34.086 -11.74,7.598 -24.87,15.656 -36.38,23.028 -12.21,-17.043 -23.03,-26.024 -41.46,-23.258 -32.24,4.836 -37.53,20.265 -38.69,38.457 43.07,0 90.28,0.23 133.12,0.23 z m -131.04,31.551 c 2.76,16.582 11.97,30.398 38.22,32.242 23.5,0 38.23,-14.277 38.23,-32.242 0,0 -78.3,0 -76.45,0" /><path
         id="path28"
         style="fill:#2873aa;fill-opacity:1;fill-rule:evenodd;stroke:none"
         d="m 1745.8,839.691 h 45.59 c 0.93,0 1.39,0 1.39,0.461 v 90.508 c 10.82,21.418 29.01,26.028 55.96,24.871 l -0.23,41.227 c -31.55,-1.153 -40.76,-3.918 -55.73,-20.266 v 11.051 c 0,0.461 -0.46,0.461 -1.39,0.461 h -45.59 c -0.92,0 -1.39,0 -1.39,-0.461 V 840.152 c 0,-0.461 0.47,-0.461 1.39,-0.461" /><path
         id="path30"
         style="fill:#f28823;fill-opacity:1;fill-rule:evenodd;stroke:none"
         d="M 436.77,1098.55 H 202.555 c -42.145,-3.23 -35.469,-59.42 -4.379,-58.96 28.789,0.46 77.152,0 111.469,0 C 260.359,993.07 150.273,922.598 102.141,876.77 83.4883,859.039 84.6367,807.449 138.762,819.426 c 20.496,11.285 113.074,86.824 125.742,99.722 6.445,-160.523 187.004,-235.832 322.652,-141.636 72.082,50.207 96.957,177.332 40.532,239.968 -44.45,49.75 -125.516,99.49 -222.469,180.33 -15.43,12.66 -61.719,6.22 -46.063,-31.55 0,0 41.227,-41.23 77.614,-67.71 z m 23.718,-56.42 c 66.789,0 121.598,-49.29 121.598,-109.169 0,-60.336 -54.809,-109.16 -121.598,-109.16 -67.246,0 -121.597,48.824 -121.597,109.16 0,59.879 54.351,109.169 121.597,109.169" /><path
         id="path32"
         style="fill:#2873aa;fill-opacity:1;fill-rule:evenodd;stroke:none"
         d="m 464.75,1006.89 c 41.543,0 75.426,-31.913 75.426,-71.046 0,-39.133 -33.883,-71.047 -75.426,-71.047 -41.543,0 -75.426,31.914 -75.426,71.047 0,39.133 33.883,71.046 75.426,71.046" /></g></g></svg>
