<svg width="50" height="50" xmlns="http://www.w3.org/2000/svg">

 <g>
  <title>background</title>
  <rect fill="none" id="canvas_background" height="402" width="582" y="-1" x="-1"/>
 </g>
 <g>
  <title>Layer 1</title>
  <path fill="#ffffff" id="svg_1" d="m40.076784,5.780683c-1.137,-0.137 -1.763343,1.20861 -2.402344,2.84961c-1.691,4.343 -6.658578,7.111437 -11.017578,8.023437c-0.962,-0.564 -2.077484,-0.892578 -3.271484,-0.892578c-1.574,0 -3.018531,0.562094 -4.144531,1.496094c-4.305,-0.341 -7.492391,-5.003735 -7.525391,-5.052735l-1.830078,-2.730468l0,9.634765c-0.401339,0.571333 -0.68375,1.227271 -0.845703,1.927735c-2.048307,-1.431752 -4.434935,-1.73005 -6.191406,-0.558594c-0.98,0.652 -1.624282,1.670312 -1.863282,2.945312c-0.346,1.845 0.200094,3.960735 1.496094,5.802735c1.59,2.261 3.88675,3.544922 5.96875,3.544922c0.888,0 1.73661,-0.234563 2.474609,-0.726563c0.980001,-0.652 1.624282,-1.670312 1.863282,-2.945312c0.09387,-0.503463 0.115799,-1.028016 0.080078,-1.560547c0.48944,0.140297 0.996677,0.222656 1.517578,0.222656c0.165,0 0.325281,-0.015297 0.488281,-0.029297c0.018,0.589 -0.016093,1.170375 -0.121093,1.734375c-0.34,1.818 -1.281704,3.286141 -2.720704,4.244141c-0.386,0.257 -0.802328,0.455187 -1.236328,0.617187c1.07,0.675 2.247141,1.333219 3.369141,1.824219c4.027,1.763 7.77925,2.636719 11.15625,2.636719c2.844,0 5.413156,-0.637 7.660156,-1.875c0.521,0.284 1.0435,0.554015 1.5625,0.791015c2.719847,1.239226 5.414218,2.144127 7.419922,2.503907c0.039156,0.227713 0.086121,0.459 0.160156,0.699218c0.739,2.394 4.706141,3.599407 5.494141,3.816407l1.265625,0.349609l0.001953,-1.310547c0.003,-1.643 -0.111516,-5.595734 -1.228516,-6.802734c-0.996353,-1.07721 -2.329271,-1.451191 -3.52539,-1.033203c-1.414921,-1.1814 -3.54502,-2.499806 -6.03125,-3.697266c4.481,-6.863 3.923672,-20.249188 3.513672,-23.367187c-0.208,-1.579001 -0.38711,-2.943032 -1.53711,-3.082032zm-16.691406,11.980469c2.481,0 4.5,2.019 4.5,4.5c0,0.281409 -0.034306,0.555016 -0.083984,0.822266c-0.307945,-1.329463 -1.49284,-2.322266 -2.916016,-2.322266c-0.086,0 -0.166,0.018391 -0.25,0.025391c0.709,0.12 1.25,0.731609 1.25,1.474609c0,0.828 -0.672,1.5 -1.5,1.5c-0.828,0 -1.5,-0.672 -1.5,-1.5c0,-0.406 0.163781,-0.772969 0.425781,-1.042969c-0.853,0.529 -1.425781,1.465969 -1.425781,2.542969c0,1.423176 0.992803,2.608071 2.322266,2.916016c-0.26725,0.049678 -0.540857,0.083984 -0.822266,0.083984c-2.481,0 -4.5,-2.019 -4.5,-4.5c0,-2.481 2.019,-4.5 4.5,-4.5zm-9,1c1.137,0 2.19075,0.553844 2.84375,1.464844c-0.120167,0.358824 -0.204743,0.731588 -0.263672,1.113281c-0.43173,-0.355262 -0.977154,-0.578125 -1.580078,-0.578125c-0.071,0 -0.137031,0.015484 -0.207031,0.021484c0.591,0.1 1.041015,0.609516 1.041015,1.228516c0,0.69 -0.56,1.25 -1.25,1.25c-0.69,0 -1.25,-0.56 -1.25,-1.25c0,-0.338 0.135516,-0.644141 0.353516,-0.869141c-0.711,0.441 -1.1875,1.221141 -1.1875,2.119141c0,1.220431 0.874899,2.233406 2.03125,2.453125c-0.174026,0.028542 -0.350698,0.046875 -0.53125,0.046875c-0.738,0 -1.443828,-0.227109 -2.048828,-0.662109l-0.085938,-0.0625c-0.251142,-0.594129 -0.567539,-1.1811 -0.960937,-1.740235c-0.108402,-0.154191 -0.223198,-0.298349 -0.337891,-0.443359c-0.033278,-0.195115 -0.066406,-0.391066 -0.066406,-0.591797c0,-1.93 1.57,-3.5 3.5,-3.5zm-9.5,3c1.105,0 2,1.119 2,2.5c0,1.381 -0.895,2.5 -2,2.5c-1.105,0 -2,-1.119 -2,-2.5c0,-1.381 0.895,-2.5 2,-2.5zm25,6c0,0 1.234187,0.562891 2.117188,1.462891c0.005,0.005 0.009625,0.010625 0.015624,0.015625c0.085001,0.087 0.167141,0.178484 0.244141,0.271484c0.398,0.485 0.666422,1.048109 0.607422,1.662109c0.001,0 0.002906,0.000953 0.003906,0.001953c-0.008,0.087 -0.019015,0.174672 -0.041015,0.263672c-0.055,0.22 -0.164688,0.448688 -0.304688,0.679688c1.229,0.409 2.535094,0.910531 3.871094,1.519531c2.463713,1.122442 4.683942,2.421405 6.134766,3.554688c-0.19615,0.290945 -0.352869,0.62214 -0.464844,0.990234c-1.809094,-0.352262 -4.21473,-1.168869 -6.695313,-2.298828c-1.485,-0.677 -3.047187,-1.637438 -4.367187,-2.523438c-0.397,0.153 -0.844219,0.25536 -1.324219,0.31836c-4.129,0.542 -10.796875,-1.917969 -10.796875,-1.917969c0,0 11.865234,0.655797 11.865234,-1.658203c0,-1.15 -0.865234,-2.341797 -0.865234,-2.341797z"/>
 </g>
</svg>