<svg width="512" height="512" xmlns="http://www.w3.org/2000/svg">

 <g>
  <title>background</title>
  <rect fill="none" id="canvas_background" height="402" width="582" y="-1" x="-1"/>
 </g>
 <g>
  <title>Layer 1</title>
  <path fill="#ffffff" id="svg_4" d="m327.2,70.6l-142.4,0c-63.1,0 -114.3,51.2 -114.3,114.3l0,142.3c0,63.1 51.1,114.2 114.3,114.2l142.3,0c63.1,0 114.2,-51.1 114.2,-114.2l0,-142.3c0.1,-63.2 -51,-114.3 -114.1,-114.3zm78.6,242.9c0,51 -41.3,92.3 -92.3,92.3l-115,0c-51,0 -92.3,-41.3 -92.3,-92.3l0,-115c0,-51 41.3,-92.3 92.3,-92.3l115,0c51,0 92.3,41.4 92.3,92.3l0,115z" class="st1"/>
  <path fill="#ffffff" id="svg_5" d="m261,159c-54,0 -97.7,43.7 -97.7,97.7c0,53.9 43.7,97.7 97.7,97.7c53.9,0 97.7,-43.7 97.7,-97.7c-0.1,-54 -43.8,-97.7 -97.7,-97.7zm0,156.4c-32.5,0 -58.8,-26.3 -58.8,-58.8c0,-32.5 26.3,-58.8 58.8,-58.8c32.4,0 58.8,26.3 58.8,58.8c-0.1,32.5 -26.4,58.8 -58.8,58.8z" class="st1"/>
  <path fill="#ffffff" id="svg_6" d="m376.7,157.5c0,13.7 -11.1,24.8 -24.8,24.8c-13.7,0 -24.8,-11.1 -24.8,-24.8c0,-13.7 11.1,-24.9 24.8,-24.9c13.7,0 24.8,11.1 24.8,24.9z" class="st1"/>
 </g>
</svg>