<svg width="500" height="500" xmlns="http://www.w3.org/2000/svg">
 <g>
  <title>background</title>
  <rect x="-1" y="-1" width="394.637891" height="394.637891" id="canvas_background" fill="none"/>
 </g>

 <g>
  <title>Layer 1</title>
  <path fill="#fff" stroke="#000" stroke-width="1.5" opacity="0.5" d="m60.80015,48.00015" id="svg_2"/>
  <path fill="#ffffff" stroke="#ffffff" stroke-width="1.5" d="m69.60458,308.37122c0,0 0.46511,-128.83685 0.46442,-129.30195c7.39098,0.00321 28.87004,-0.22774 33.48828,0c1.61732,2.31267 28.3727,39.53476 28.3727,39.53476c0,0 27.23339,-34.45073 30.6969,-39.53476c9.0076,0.23416 33.95408,0.4651 33.95408,0.4651c0,0 0,128.37173 -0.00068,127.90663c0.00068,0.4651 -33.02248,0.4651 -33.02317,0c0.00069,0.4651 0.00069,-78.13933 0,-78.60443c0.00069,0.4651 -30.23178,35.81384 -30.23178,35.81384c0,0 -30.69759,-36.27897 -30.69828,-36.74407c0.00069,0.4651 0.00069,80.46488 0,79.99978c0.00069,0.4651 -33.02247,0.4651 -33.02247,0.4651z" id="svg_3"/>
  <path fill="#ffffff" stroke="#ffffff" stroke-width="1.5" d="m238.04208,326.13194c0,0 -89.02077,-156.83009 86.792,-147.52779c4.13114,14.04576 8.37275,27.44178 8.37275,27.44178c-62.68356,-2.57352 -79.45943,5.9901 -81.48216,31.99547c6.43448,0.09746 31.06849,-0.08636 39.70748,0.18382c0.18451,-7.07163 0.37944,-22.55381 0.37876,-27.06302c6.40252,-0.27817 31.12948,-0.00001 34.80526,0.07837c-0.18314,6.34743 1.00928,96.66553 1.0086,96.20043c-2.20519,0.28128 -32.96948,-0.18382 -36.09515,-0.09746c-0.36697,-4.13047 -0.18314,-39.48179 -0.18382,-43.62335c-11.58016,0.64893 -33.31746,-0.08636 -42.32547,0c4.59626,33.92086 14.1602,42.62898 15.81391,44.18593l-26.79216,18.22582z" id="svg_5"/>
  <path fill="#ffffff" stroke="#ffffff" stroke-width="1.5" d="m355.11437,179.16791c29.54566,0 33.33357,0 33.14589,-0.00001c0.18768,0.00001 0.56647,101.13707 0.37879,101.13707c0.18768,0 47.1577,0.75759 47.1577,0.75759c0,0 -6.43944,26.89412 -6.62712,26.89411c0.18768,0.00001 -73.29768,0.00001 -73.29768,0.00001c0,0 -1.19678,-117.27162 -1.17996,-129.13257" id="svg_6"/>
 </g>
</svg>