<?xml version="1.0" encoding="UTF-8" standalone="no"?>
<svg
   xmlns:dc="http://purl.org/dc/elements/1.1/"
   xmlns:cc="http://creativecommons.org/ns#"
   xmlns:rdf="http://www.w3.org/1999/02/22-rdf-syntax-ns#"
   xmlns:svg="http://www.w3.org/2000/svg"
   xmlns="http://www.w3.org/2000/svg"
   xmlns:sodipodi="http://sodipodi.sourceforge.net/DTD/sodipodi-0.dtd"
   xmlns:inkscape="http://www.inkscape.org/namespaces/inkscape"
   inkscape:version="1.0 (4035a4fb49, 2020-05-01)"
   sodipodi:docname="iconfinder-icon (1).svg"
   id="svg196"
   version="1.1"
   height="24"
   width="24">
  <metadata
     id="metadata200">
    <rdf:RDF>
      <cc:Work
         rdf:about="">
        <dc:format>image/svg+xml</dc:format>
        <dc:type
           rdf:resource="http://purl.org/dc/dcmitype/StillImage" />
        <dc:title></dc:title>
      </cc:Work>
    </rdf:RDF>
  </metadata>
  <sodipodi:namedview
     inkscape:current-layer="svg196"
     inkscape:window-maximized="1"
     inkscape:window-y="-8"
     inkscape:window-x="-8"
     inkscape:cy="12"
     inkscape:cx="12"
     inkscape:zoom="30.625"
     showgrid="false"
     id="namedview198"
     inkscape:window-height="987"
     inkscape:window-width="1680"
     inkscape:pageshadow="2"
     inkscape:pageopacity="0"
     guidetolerance="10"
     gridtolerance="10"
     objecttolerance="10"
     borderopacity="1"
     bordercolor="#666666"
     pagecolor="#ffffff" />
  <defs
     id="defs182">
    <linearGradient
       gradientUnits="userSpaceOnUse"
       gradientTransform="scale(1.0444654,0.95742758)"
       id="SVGID_1_"
       x1="0.036602034"
       x2="23.014841"
       y1="1.0045496"
       y2="1.0045496">
      <stop
         id="stop177"
         offset="0"
         stop-opacity="0.2"
         stop-color="#FFFFFF" />
      <stop
         id="stop179"
         offset="1"
         stop-opacity="0"
         stop-color="#FFFFFF" />
    </linearGradient>
  </defs>
  <g
     id="g187">
    <title
       id="title184">background</title>
    <rect
       x="-1"
       y="-1"
       width="582"
       height="402"
       id="canvas_background"
       fill="none" />
  </g>
  <path
     d="M 11.914062 1.0117188 A 10.612835 10.808164 0 0 0 1.3378906 11.820312 A 10.612835 10.808164 0 0 0 11.951172 22.628906 A 10.612835 10.808164 0 0 0 22.564453 11.820312 A 10.612835 10.808164 0 0 0 11.951172 1.0117188 A 10.612835 10.808164 0 0 0 11.914062 1.0117188 z M 8.9003906 3.6796875 C 9.5314755 3.7295389 10.255272 4.0538338 11.029297 4.6503906 C 11.195865 4.7786193 11.226304 5.0190246 11.097656 5.1855469 C 10.970501 5.3528077 10.728276 5.3825004 10.5625 5.2539062 C 9.8747094 4.723851 8.6190045 3.9634529 7.9238281 4.8339844 C 7.4269569 5.4580564 7.3102533 6.7854089 7.6015625 8.4746094 C 8.3705009 8.3555866 9.2096957 8.2849583 10.101562 8.265625 C 12.274058 5.6406441 14.71422 3.9847896 16.330078 4.2207031 C 17.6082 4.4083709 18.190177 5.6217229 17.927734 7.5507812 C 17.899469 7.7589397 17.702211 7.9040911 17.5 7.8769531 C 17.291788 7.8483224 17.145568 7.6573848 17.173828 7.4492188 C 17.289835 6.5943504 17.321886 5.1347163 16.220703 4.9726562 C 15.073177 4.8051594 13.059796 6.0422003 11.095703 8.2675781 C 15.888572 8.3712195 20.165043 9.9310474 20.953125 11.910156 C 21.373218 12.967609 20.802684 13.990062 19.384766 14.714844 C 19.328997 14.743094 19.269687 14.755859 19.210938 14.755859 C 19.072674 14.755859 18.938764 14.6804 18.871094 14.548828 C 18.775174 14.361907 18.849716 14.132989 19.037109 14.037109 C 19.773184 13.660944 20.581415 13.034373 20.246094 12.191406 C 19.636383 10.65892 15.610681 9.0195312 10.591797 9.0195312 C 10.547087 9.0195314 10.509134 9.0231634 10.464844 9.0234375 C 9.8272028 9.8223543 9.2044089 10.718261 8.6308594 11.707031 C 8.6088764 11.744952 8.5938296 11.778716 8.5722656 11.816406 C 8.9483018 12.765436 9.4150515 13.75012 9.9882812 14.738281 C 11.892471 18.020655 13.906835 19.575386 15.058594 19.660156 C 15.441552 19.685809 15.745302 19.560566 15.976562 19.269531 C 16.934235 18.06712 16.433699 14.546023 14.810547 11.080078 C 14.721312 10.889761 14.803823 10.663039 14.994141 10.574219 C 15.183019 10.48503 15.41007 10.567123 15.5 10.757812 C 17.293436 14.588785 17.735641 18.284534 16.574219 19.744141 C 16.217333 20.19202 15.731669 20.425781 15.162109 20.425781 C 15.110056 20.425781 15.057446 20.424022 15.003906 20.419922 C 13.329485 20.296902 11.154757 18.266315 9.3300781 15.121094 C 8.8635128 14.316649 8.4530074 13.497012 8.1035156 12.685547 C 6.6764378 15.4797 6.4324624 17.602346 6.8808594 18.53125 C 7.0488665 18.878793 7.3113687 19.074295 7.6816406 19.128906 C 8.2452455 19.211448 8.9967969 18.970986 9.8652344 18.431641 C 10.042957 18.322753 10.277873 18.375568 10.388672 18.554688 C 10.499463 18.733111 10.444095 18.967372 10.265625 19.078125 C 9.3786006 19.62858 8.588516 19.90625 7.9082031 19.90625 C 7.7929495 19.90625 7.680826 19.898802 7.5722656 19.882812 C 6.9499603 19.791393 6.4733724 19.439023 6.1953125 18.863281 C 5.5025042 17.427751 6.1010424 14.734615 7.734375 11.765625 C 7.4221487 10.938222 7.1773919 10.128123 7.0019531 9.359375 C 5.2826371 9.7230451 4.180796 10.32835 3.7714844 10.931641 C 3.5573256 11.247538 3.5194245 11.567075 3.65625 11.910156 C 3.8257419 12.336844 4.2583865 12.778185 4.9082031 13.185547 C 5.0866726 13.297458 5.1408422 13.532888 5.0292969 13.710938 C 4.9177593 13.889723 4.6831144 13.94157 4.5039062 13.830078 C 3.704624 13.328653 3.1807577 12.77913 2.9472656 12.193359 C 2.7167966 11.614274 2.7836937 11.029499 3.140625 10.503906 C 3.7256572 9.6418341 5.0533828 8.9843451 6.8515625 8.609375 C 6.5291174 6.7479947 6.6602314 5.1981615 7.328125 4.359375 C 7.7303704 3.8548131 8.2693057 3.6298361 8.9003906 3.6796875 z M 9.4765625 9.0546875 C 8.8543485 9.0877345 8.281822 9.1468117 7.7539062 9.2285156 C 7.8761347 9.7601471 8.0336482 10.319443 8.2304688 10.898438 C 8.6241172 10.252754 9.0414147 9.6332626 9.4765625 9.0546875 z M 11.945312 10.529297 A 1.5226045 1.5226045 0 0 1 11.951172 10.529297 A 1.5226045 1.5226045 0 0 1 13.472656 12.050781 A 1.5226045 1.5226045 0 0 1 11.951172 13.574219 A 1.5226045 1.5226045 0 0 1 10.427734 12.050781 A 1.5226045 1.5226045 0 0 1 11.945312 10.529297 z "
     style="fill:#ffffff;stroke-width:1.32932"
     id="path202" />
</svg>
